<?xml version="1.0" encoding="UTF-8" standalone="no"?>
<!-- Created with Inkscape (http://www.inkscape.org/) -->

<svg
   width="106.14254mm"
   height="100.33965mm"
   viewBox="0 0 106.14254 100.33965"
   version="1.1"
   id="svg1"
   xml:space="preserve"
   xmlns="http://www.w3.org/2000/svg"
   xmlns:svg="http://www.w3.org/2000/svg"><defs
     id="defs1" /><g
     id="layer1"
     transform="translate(-2.1166666,-3.9687506)"><g
       id="g6"
       transform="translate(12.435417,-63.235417)"><path
         style="display:inline;fill:#4ade80;fill-opacity:1;stroke-width:99.9472;stroke-dasharray:none;paint-order:normal"
         d="m 20.073653,135.46152 c 0.0643,-0.82811 12.74683,-15.40812 13.88581,-17.74212 0.15261,-0.31272 -10.19551,9.48451 -11.07141,9.48451 C 9.0889533,125.1179 -0.89578672,114.91988 -1.2716667,101.58145 -1.9586567,77.202347 22.890113,71.384437 42.237123,71.233657 c 9.49965,0.0167 20.1763,0.78386 41.74043,1.00341 -2.33822,2.07824 -11.18593,10.01511 -10.63604,9.69357 2.99534,-1.75146 20.68578,-13.63095 22.38253,-14.6818 1.65493,-1.02495 -17.70972,15.85108 -26.18934,23.58851 -3.72973,-1.25171 -46.7114,-5.91697 -47.71746,8.53324 0.54317,12.516963 19.06979,8.631703 28.57981,8.802683 -9.54828,8.74654 -20.54288,17.84958 -30.3234,27.28825 z"
         id="path2-2" /><path
         style="display:inline;fill:#4ade80;fill-opacity:1;stroke-width:99.9472;stroke-dasharray:none;paint-order:normal"
         d="m 65.431413,99.286467 c -0.0643,0.828113 -12.74684,15.408123 -13.88582,17.742123 -0.15261,0.31272 10.19551,-9.48451 11.07141,-9.48451 13.7991,2.08601 23.78385,12.28403 24.15972,25.62246 0.68699,24.3791 -24.16178,30.19701 -43.50879,30.34779 -9.49965,-0.0167 -20.1763,-0.78387 -41.7404297,-1.00342 2.33822,-2.07824 11.1859297,-10.0151 10.6360397,-9.69356 -2.9953397,1.75146 -20.6857807,13.63095 -22.382531,14.6818 -1.65493,1.02494 17.7097213,-15.85108 26.189341,-23.58851 3.72973,1.25171 46.7114,5.91697 47.71747,-8.53324 -0.54318,-12.51696 -19.0698,-8.6317 -28.57982,-8.80268 9.54828,-8.74654 20.54288,-17.84958 30.32341,-27.288253 z"
         id="path2-5-3" /></g></g></svg>
